<svg width="114" height="114" viewBox="0 0 114 114" fill="none" xmlns="http://www.w3.org/2000/svg">
<circle cx="57" cy="57" r="57" fill="white"/>
<path d="M71.4551 65.8805H68.5192L67.4786 64.8771C71.1206 60.6404 73.3133 55.1401 73.3133 49.1567C73.3133 35.8148 62.4986 25 49.1567 25C35.8148 25 25 35.8148 25 49.1567C25 62.4986 35.8148 73.3133 49.1567 73.3133C55.1401 73.3133 60.6404 71.1206 64.8771 67.4786L65.8805 68.5192V71.4551L84.4626 90L90 84.4626L71.4551 65.8805ZM49.1567 65.8805C39.9028 65.8805 32.4328 58.4105 32.4328 49.1567C32.4328 39.9028 39.9028 32.4328 49.1567 32.4328C58.4105 32.4328 65.8805 39.9028 65.8805 49.1567C65.8805 58.4105 58.4105 65.8805 49.1567 65.8805Z" fill="black"/>
</svg>
